<svg xmlns="http://www.w3.org/2000/svg" width="104" height="20" viewBox="0 0 104 20" fill="none">
  <path d="M8.49609 1.41992C9.67991 1.41992 10.7837 1.61221 11.8076 1.99609C12.8476 2.36409 13.7525 2.91634 14.5205 3.65234C15.2884 4.3883 15.8958 5.3008 16.3438 6.38867C16.7917 7.47661 17.0156 8.74078 17.0156 10.1807C17.0156 11.6205 16.7917 12.8922 16.3438 13.9961C15.8958 15.1 15.2884 16.0283 14.5205 16.7803C13.7525 17.5323 12.8476 18.1078 11.8076 18.5078C10.7837 18.8917 9.67999 19.084 8.49609 19.084C7.31212 19.084 6.20014 18.9002 5.16016 18.5322C4.13616 18.1482 3.23968 17.5885 2.47168 16.8525C1.70373 16.1166 1.09642 15.2041 0.648438 14.1162C0.216437 13.0282 0 11.7642 0 10.3242C1.85965e-06 8.88423 0.216439 7.61181 0.648438 6.50781C1.09634 5.40422 1.70398 4.47643 2.47168 3.72461C3.23967 2.97262 4.13617 2.40451 5.16016 2.02051C6.20016 1.62051 7.31209 1.41992 8.49609 1.41992ZM22.832 14.6924C22.8321 15.2681 23.0002 15.6601 23.3359 15.8682C23.6719 16.0762 24.0647 16.1807 24.5127 16.1807C25.0884 16.1806 25.5841 16.076 26 15.8682C26.416 15.6442 26.7528 15.3643 27.0088 15.0283V6.38867H30.7285V18.8447H27.248L27.1045 17.0918H27.0322C26.7122 17.6518 26.2402 18.1238 25.6162 18.5078C25.0082 18.8918 24.2004 19.084 23.1924 19.084C21.9924 19.084 21.0008 18.7397 20.2168 18.0518C19.4488 17.3478 19.0645 16.2918 19.0645 14.8838V6.38867H22.832V14.6924ZM37.6826 6.38867H41.1865V9.29199H37.6826V14.7158C37.6826 15.1958 37.7787 15.5643 37.9707 15.8203C38.1787 16.0602 38.5147 16.1807 38.9785 16.1807C39.3144 16.1806 39.6262 16.1321 39.9141 16.0361C40.2021 15.9401 40.4428 15.8366 40.6348 15.7246L41.2588 18.46C40.9068 18.636 40.4581 18.7806 39.9141 18.8926C39.3862 19.0205 38.8103 19.084 38.1865 19.084C36.6825 19.084 35.6023 18.7323 34.9463 18.0283C34.2904 17.3244 33.962 16.3484 33.9619 15.1006V9.29199H32.4746V6.38867H33.9619V3.77246H37.6826V6.38867ZM97.7188 6.14844C98.6947 6.14844 99.5829 6.30798 100.383 6.62793C101.183 6.93193 101.847 7.39651 102.375 8.02051C102.903 8.64442 103.271 9.42828 103.479 10.3721C103.687 11.3 103.695 12.3962 103.503 13.6602H95.127C95.2549 14.5081 95.5909 15.1481 96.1348 15.5801C96.6787 15.9961 97.5268 16.2041 98.6787 16.2041C99.2706 16.2041 99.7987 16.164 100.263 16.084C100.743 15.988 101.143 15.876 101.463 15.748C101.847 15.6041 102.175 15.4445 102.447 15.2686L103.167 17.9805C102.847 18.1885 102.463 18.3722 102.015 18.5322C101.631 18.6762 101.151 18.8041 100.575 18.916C99.9992 19.028 99.3107 19.084 98.5107 19.084C96.0468 19.084 94.223 18.5159 93.0391 17.3799C91.8552 16.2439 91.2627 14.6523 91.2627 12.6045C91.2627 11.5966 91.4148 10.6925 91.7188 9.89258C92.0388 9.09258 92.4791 8.41998 93.0391 7.87598C93.599 7.31608 94.2792 6.89246 95.0791 6.60449C95.879 6.30053 96.7588 6.14845 97.7188 6.14844ZM44.9121 14.332C45.2481 14.332 45.5606 14.3964 45.8486 14.5244C46.1525 14.6364 46.4083 14.8044 46.6162 15.0283C46.8402 15.2363 47.0165 15.4845 47.1445 15.7725C47.2724 16.0444 47.3359 16.3403 47.3359 16.6602C47.3359 16.9801 47.2725 17.2843 47.1445 17.5723C47.0165 17.8443 46.8402 18.0924 46.6162 18.3164C46.4083 18.5243 46.1525 18.6924 45.8486 18.8203C45.5606 18.9483 45.2481 19.0127 44.9121 19.0127C44.5762 19.0127 44.2561 18.9483 43.9521 18.8203C43.6643 18.6924 43.4085 18.5243 43.1846 18.3164C42.9766 18.0924 42.8087 17.8442 42.6807 17.5723C42.5687 17.2843 42.5127 16.9802 42.5127 16.6602C42.5127 16.3402 42.5687 16.0444 42.6807 15.7725C42.8087 15.4845 42.9766 15.2363 43.1846 15.0283C43.4085 14.8044 43.6643 14.6364 43.9521 14.5244C44.2561 14.3964 44.5762 14.3321 44.9121 14.332ZM67.624 18.8447H63.9033V6.38867H67.624V18.8447ZM85.3486 6.14844C85.9086 6.14844 86.4292 6.23611 86.9092 6.41211C87.405 6.57209 87.8287 6.82036 88.1807 7.15625C88.5486 7.47615 88.8285 7.88409 89.0205 8.37988C89.2285 8.87578 89.333 9.46 89.333 10.1318V18.8447H85.6133V10.6367C85.6133 10.0769 85.461 9.67655 85.1572 9.43652C84.8532 9.18052 84.4689 9.05176 84.0049 9.05176C83.4769 9.05177 83.0207 9.17212 82.6367 9.41211C82.2688 9.65207 81.9571 9.95631 81.7012 10.3242V18.8447H77.957V10.54C77.957 9.98047 77.813 9.59673 77.5254 9.38867C77.2374 9.16467 76.8605 9.05176 76.3965 9.05176C75.8368 9.05182 75.3653 9.1648 74.9814 9.38867C74.6134 9.59667 74.3009 9.86066 74.0449 10.1807V18.8447H70.3252V6.38867H73.8291L73.9727 8.14062H74.0205C74.3564 7.58077 74.8288 7.10855 75.4365 6.72461C76.0445 6.34063 76.8049 6.14846 77.7168 6.14844C78.5648 6.14844 79.3167 6.34063 79.9727 6.72461C80.6287 7.09261 81.1091 7.66071 81.4131 8.42871C81.7811 7.74071 82.2932 7.18846 82.9492 6.77246C83.6211 6.35655 84.4208 6.14849 85.3486 6.14844ZM62.0439 4.78027H57.1729V18.8438H53.3564V4.78027H48.5088V1.66016H62.0439V4.78027ZM8.49609 4.54004C7.84009 4.54004 7.23187 4.64454 6.67188 4.85254C6.12802 5.04454 5.65578 5.37205 5.25586 5.83594C4.85586 6.28394 4.5359 6.87631 4.2959 7.6123C4.07194 8.33222 3.95998 9.21213 3.95996 10.252C3.95996 11.2918 4.07195 12.1801 4.2959 12.916C4.53589 13.636 4.85587 14.2284 5.25586 14.6924C5.65578 15.1403 6.12802 15.4678 6.67188 15.6758C7.23187 15.8678 7.84009 15.9639 8.49609 15.9639C9.15208 15.9639 9.75191 15.8678 10.2959 15.6758C10.8559 15.4678 11.3363 15.1404 11.7363 14.6924C12.1523 14.2284 12.4723 13.636 12.6963 12.916C12.9362 12.1801 13.0557 11.2918 13.0557 10.252C13.0556 9.21214 12.9362 8.33222 12.6963 7.6123C12.4723 6.87631 12.1523 6.28394 11.7363 5.83594C11.3363 5.37196 10.8559 5.04453 10.2959 4.85254C9.75192 4.64456 9.15207 4.54004 8.49609 4.54004ZM97.791 8.8125C96.367 8.8125 95.4948 9.60448 95.1748 11.1885H99.9512C99.9672 10.4045 99.7824 9.81211 99.3984 9.41211C99.0305 9.01233 98.4948 8.81252 97.791 8.8125ZM65.752 0.916016C66.0557 0.916053 66.3435 0.972143 66.6152 1.08398C66.8872 1.19598 67.1279 1.34804 67.3359 1.54004C67.5438 1.73194 67.7034 1.95608 67.8154 2.21191C67.9434 2.46778 68.0077 2.74794 68.0078 3.05176C68.0078 3.33976 67.9434 3.62058 67.8154 3.89258C67.7035 4.1483 67.5437 4.38007 67.3359 4.58789C67.1279 4.77989 66.8872 4.93195 66.6152 5.04395C66.3434 5.15584 66.0557 5.21188 65.752 5.21191C65.432 5.21191 65.1353 5.15595 64.8633 5.04395C64.6074 4.93196 64.3759 4.77979 64.168 4.58789C63.96 4.37996 63.7995 4.14848 63.6875 3.89258C63.5755 3.62058 63.5195 3.33976 63.5195 3.05176C63.5196 2.44397 63.7361 1.93993 64.168 1.54004C64.5999 1.12421 65.1281 0.916016 65.752 0.916016Z" fill="black"/>
</svg> 