<svg width="48" height="48" viewBox="0 0 48 48" fill="none" xmlns="http://www.w3.org/2000/svg">
<g clip-path="url(#clip0_488_115650)">
<rect width="48" height="48" rx="15" fill="#12F287"/>
<path fill-rule="evenodd" clip-rule="evenodd" d="M15.1012 63.3771L14.3407 63.4218L13.9661 63.433C8.78837 63.433 4.41396 59.9995 3.00137 55.2535C2.77903 54.5065 1.95314 54.0634 1.20718 54.2893C0.1559 54.6076 -0.95915 54.7772 -2.11532 54.7772C-5.01735 54.7772 -7.66776 53.7036 -9.68632 51.9255C-12.0683 49.8231 -13.5669 46.7477 -13.5669 43.3256C-13.5669 40.8582 -12.7924 38.5749 -11.4717 36.7076C-11.1224 36.2138 -11.1421 35.5377 -11.5197 35.065C-12.2605 34.1377 -12.8615 33.0903 -13.2873 31.9635C-13.7626 30.6998 -14.0254 29.3355 -14.0254 27.9152C-14.0254 21.5856 -8.89791 16.4637 -2.57383 16.4637C-1.2051 16.4637 0.102127 16.7096 1.31459 17.1535C2.09013 17.4374 2.99575 16.9741 3.22178 16.1797C4.58672 11.3828 9.0031 7.875 14.2401 7.875C19.9084 7.875 24.6154 11.9897 25.5306 17.4008C25.6775 18.2691 26.6356 18.8513 27.4737 18.5812C28.5849 18.2232 29.7695 18.0293 30.998 18.0293C33.1676 18.0293 35.1917 18.6332 36.9195 19.6844C40.2353 21.6862 42.4496 25.3207 42.4496 29.4809C42.4496 30.3532 42.349 31.2031 42.1644 32.0195C41.9855 32.8023 41.7283 33.5516 41.3984 34.2561C41.0116 35.0969 40.5268 35.8809 39.9583 36.5937C39.6268 37.0093 39.5704 37.5867 39.8155 38.0585C40.6345 39.6345 41.0964 41.4228 41.0964 43.3256C41.0964 49.6553 35.969 54.7772 29.6449 54.7772C28.6055 54.7772 27.5961 54.6372 26.6367 54.3773C25.9113 54.1807 25.1304 54.6116 24.9085 55.3297C24.3723 57.0652 23.4337 58.6305 22.2025 59.9103C21.1457 61.0062 19.8764 61.9009 18.4561 62.5048L18.238 62.5942L17.6621 62.8179C17.0247 63.0304 16.3649 63.1981 15.6827 63.2988L15.2633 63.3547L15.1012 63.3771Z" fill="black"/>
<path d="M19.8598 36.1148C18.3003 36.1148 17.0361 34.2185 17.0361 31.8792C17.0361 29.5399 18.3003 27.6436 19.8598 27.6436C21.4194 27.6436 22.6836 29.5399 22.6836 31.8792C22.6836 34.2185 21.4194 36.1148 19.8598 36.1148Z" fill="white"/>
<ellipse cx="8.56492" cy="31.8792" rx="4.23563" ry="2.82375" transform="rotate(90 8.56492 31.8792)" fill="white"/>
</g>
<defs>
<clipPath id="clip0_488_115650">
<rect width="48" height="48" rx="15" fill="white"/>
</clipPath>
</defs>
</svg> 